<?xml version="1.0" standalone="no"?>
<!DOCTYPE svg PUBLIC "-//W3C//DTD SVG 20010904//EN"
 "http://www.w3.org/TR/2001/REC-SVG-20010904/DTD/svg10.dtd">
<svg version="1.0" xmlns="http://www.w3.org/2000/svg"
 width="220.000000pt" height="128.000000pt" viewBox="0 0 220.000000 128.000000"
 preserveAspectRatio="xMidYMid meet">
<metadata>
Created by potrace 1.15, written by Peter Selinger 2001-2017
</metadata>
<g transform="translate(0.000000,128.000000) scale(0.100000,-0.100000)"
fill="#000000" stroke="none">
<path d="M942 1193 c-13 -43 -54 -175 -92 -293 -38 -118 -71 -225 -75 -238 -6
-22 -4 -23 37 -21 59 3 68 8 68 34 0 35 39 153 71 216 35 70 84 111 171 145
37 14 84 36 103 50 46 31 55 31 24 -2 -13 -14 -48 -37 -76 -51 -73 -34 -154
-111 -191 -180 -32 -62 -75 -200 -64 -207 4 -2 30 -3 59 -2 58 2 115 35 164
96 30 37 62 143 57 186 -3 23 -14 13 -106 -90 -57 -64 -108 -116 -115 -116 -6
0 -2 10 9 23 11 12 35 45 54 72 69 103 201 238 216 223 2 -3 -2 -21 -11 -41
-8 -19 -19 -76 -25 -124 -13 -114 -25 -150 -67 -194 l-33 -35 160 -2 c88 -1
160 2 160 6 -1 4 -42 144 -93 312 l-93 305 -144 3 -145 2 -23 -77z"/>
<path d="M1098 474 c3 -64 0 -89 -10 -95 -8 -5 6 -9 37 -9 82 0 123 47 76 87
-17 14 -17 18 -5 30 36 37 2 73 -69 73 l-32 0 3 -86z"/>
</g>
</svg>
